<svg width="60" height="20" viewBox="0 0 60 20" fill="none" xmlns="http://www.w3.org/2000/svg">
<path d="M0.344 19V16.72C0.72 16.128 1.152 15.508 1.64 14.86C2.136 14.204 2.644 13.564 3.164 12.94C3.684 12.308 4.192 11.712 4.688 11.152C5.184 10.592 5.62 10.108 5.996 9.7C6.428 9.236 6.796 8.844 7.1 8.524C7.404 8.204 7.648 7.908 7.832 7.636C8.016 7.364 8.148 7.092 8.228 6.82C8.316 6.54 8.36 6.212 8.36 5.836C8.36 5.54 8.308 5.248 8.204 4.96C8.108 4.664 7.968 4.4 7.784 4.168C7.6 3.936 7.376 3.752 7.112 3.616C6.856 3.472 6.564 3.4 6.236 3.4C5.58 3.4 5.004 3.62 4.508 4.06C4.012 4.5 3.572 5.096 3.188 5.848L0.392 4.804C0.624 4.188 0.924 3.636 1.292 3.148C1.66 2.652 2.092 2.232 2.588 1.888C3.092 1.536 3.66 1.268 4.292 1.084C4.932 0.891999 5.64 0.795999 6.416 0.795999C7.328 0.795999 8.14 0.947999 8.852 1.252C9.564 1.548 10.164 1.94 10.652 2.428C11.148 2.916 11.524 3.472 11.78 4.096C12.036 4.712 12.164 5.336 12.164 5.968C12.164 6.528 12.076 7.044 11.9 7.516C11.724 7.988 11.488 8.444 11.192 8.884C10.896 9.316 10.56 9.748 10.184 10.18C9.808 10.612 9.42 11.068 9.02 11.548C8.62 12.028 8.204 12.516 7.772 13.012C7.348 13.508 6.94 13.98 6.548 14.428C6.164 14.876 5.812 15.288 5.492 15.664C5.18 16.04 4.936 16.352 4.76 16.6H12.464V19H0.344ZM21.7854 19.192C21.0414 19.192 20.3574 19.064 19.7334 18.808C19.1094 18.544 18.5494 18.188 18.0534 17.74C17.5574 17.292 17.1214 16.768 16.7454 16.168C16.3694 15.568 16.0574 14.928 15.8094 14.248C15.5614 13.568 15.3734 12.864 15.2454 12.136C15.1254 11.408 15.0654 10.696 15.0654 10C15.0654 9.28 15.1174 8.556 15.2214 7.828C15.3254 7.092 15.4894 6.384 15.7134 5.704C15.9454 5.016 16.2374 4.376 16.5894 3.784C16.9494 3.192 17.3774 2.676 17.8734 2.236C18.3694 1.788 18.9414 1.44 19.5894 1.192C20.2374 0.935999 20.9694 0.808 21.7854 0.808C22.5294 0.808 23.2134 0.94 23.8374 1.204C24.4614 1.46 25.0214 1.812 25.5174 2.26C26.0134 2.708 26.4494 3.232 26.8254 3.832C27.2014 4.432 27.5134 5.072 27.7614 5.752C28.0094 6.432 28.1934 7.136 28.3134 7.864C28.4414 8.592 28.5054 9.304 28.5054 10C28.5054 10.72 28.4494 11.448 28.3374 12.184C28.2334 12.912 28.0694 13.62 27.8454 14.308C27.6214 14.988 27.3294 15.624 26.9694 16.216C26.6174 16.808 26.1894 17.328 25.6854 17.776C25.1894 18.216 24.6174 18.564 23.9694 18.82C23.3214 19.068 22.5934 19.192 21.7854 19.192ZM19.2414 9.508C19.2414 9.916 19.2534 10.368 19.2774 10.864C19.3014 11.36 19.3454 11.86 19.4094 12.364C19.4814 12.86 19.5774 13.344 19.6974 13.816C19.8174 14.288 19.9734 14.708 20.1654 15.076C20.3654 15.444 20.6014 15.74 20.8734 15.964C21.1534 16.18 21.4854 16.288 21.8694 16.288C22.2054 16.288 22.4974 16.208 22.7454 16.048C23.0014 15.88 23.2214 15.656 23.4054 15.376C23.5894 15.088 23.7414 14.756 23.8614 14.38C23.9814 13.996 24.0734 13.588 24.1374 13.156C24.2094 12.724 24.2574 12.284 24.2814 11.836C24.3134 11.38 24.3294 10.932 24.3294 10.492C24.3294 10.084 24.3174 9.632 24.2934 9.136C24.2694 8.64 24.2214 8.144 24.1494 7.648C24.0854 7.144 23.9934 6.656 23.8734 6.184C23.7534 5.712 23.5934 5.296 23.3934 4.936C23.2014 4.568 22.9654 4.276 22.6854 4.06C22.4054 3.836 22.0734 3.724 21.6894 3.724C21.3534 3.724 21.0574 3.808 20.8014 3.976C20.5534 4.136 20.3374 4.36 20.1534 4.648C19.9694 4.928 19.8174 5.26 19.6974 5.644C19.5854 6.02 19.4934 6.424 19.4214 6.856C19.3574 7.28 19.3094 7.72 19.2774 8.176C19.2534 8.632 19.2414 9.076 19.2414 9.508ZM31.5628 19V16.72C31.9388 16.128 32.3708 15.508 32.8588 14.86C33.3548 14.204 33.8628 13.564 34.3828 12.94C34.9028 12.308 35.4108 11.712 35.9068 11.152C36.4028 10.592 36.8388 10.108 37.2148 9.7C37.6468 9.236 38.0148 8.844 38.3188 8.524C38.6228 8.204 38.8668 7.908 39.0508 7.636C39.2348 7.364 39.3668 7.092 39.4468 6.82C39.5348 6.54 39.5788 6.212 39.5788 5.836C39.5788 5.54 39.5268 5.248 39.4228 4.96C39.3268 4.664 39.1868 4.4 39.0028 4.168C38.8188 3.936 38.5948 3.752 38.3308 3.616C38.0748 3.472 37.7828 3.4 37.4548 3.4C36.7988 3.4 36.2228 3.62 35.7268 4.06C35.2308 4.5 34.7908 5.096 34.4068 5.848L31.6108 4.804C31.8428 4.188 32.1428 3.636 32.5108 3.148C32.8788 2.652 33.3108 2.232 33.8068 1.888C34.3108 1.536 34.8788 1.268 35.5108 1.084C36.1508 0.891999 36.8588 0.795999 37.6348 0.795999C38.5468 0.795999 39.3588 0.947999 40.0708 1.252C40.7828 1.548 41.3828 1.94 41.8708 2.428C42.3668 2.916 42.7428 3.472 42.9988 4.096C43.2548 4.712 43.3828 5.336 43.3828 5.968C43.3828 6.528 43.2948 7.044 43.1188 7.516C42.9428 7.988 42.7068 8.444 42.4108 8.884C42.1148 9.316 41.7788 9.748 41.4028 10.18C41.0268 10.612 40.6388 11.068 40.2388 11.548C39.8388 12.028 39.4228 12.516 38.9908 13.012C38.5668 13.508 38.1588 13.98 37.7668 14.428C37.3828 14.876 37.0308 15.288 36.7108 15.664C36.3988 16.04 36.1548 16.352 35.9788 16.6H43.6828V19H31.5628ZM52.1881 8.44L53.0761 4.084L50.3521 7.336L49.3441 8.224L47.4841 6.004L53.2441 0.699999L56.1601 1.096V16.6H59.0761V19H49.2721V16.6H52.1881V8.44Z" fill="white"/>
</svg>
