<svg width="184" height="52" viewBox="0 0 184 52" fill="none" xmlns="http://www.w3.org/2000/svg">
<rect width="184" height="52" rx="3" fill="#0072D2"/>
<path d="M35.4297 32L34.6016 29.2812H30.4375L29.6094 32H27L31.0312 20.5312H33.9922L38.0391 32H35.4297ZM34.0234 27.25C33.2578 24.7865 32.8255 23.3932 32.7266 23.0703C32.6328 22.7474 32.5651 22.4922 32.5234 22.3047C32.3516 22.9714 31.8594 24.6198 31.0469 27.25H34.0234ZM46.2266 28.8281C46.2266 29.8594 45.8542 30.6719 45.1094 31.2656C44.3698 31.8594 43.3385 32.1562 42.0156 32.1562C40.7969 32.1562 39.7188 31.9271 38.7812 31.4688V29.2188C39.5521 29.5625 40.2031 29.8047 40.7344 29.9453C41.2708 30.0859 41.7604 30.1562 42.2031 30.1562C42.7344 30.1562 43.1406 30.0547 43.4219 29.8516C43.7083 29.6484 43.8516 29.3464 43.8516 28.9453C43.8516 28.7214 43.7891 28.5234 43.6641 28.3516C43.5391 28.1745 43.3542 28.0052 43.1094 27.8438C42.8698 27.6823 42.3776 27.4245 41.6328 27.0703C40.9349 26.7422 40.4115 26.4271 40.0625 26.125C39.7135 25.8229 39.4349 25.4714 39.2266 25.0703C39.0182 24.6693 38.9141 24.2005 38.9141 23.6641C38.9141 22.6536 39.2552 21.8594 39.9375 21.2812C40.625 20.7031 41.5729 20.4141 42.7812 20.4141C43.375 20.4141 43.9401 20.4844 44.4766 20.625C45.0182 20.7656 45.5833 20.9635 46.1719 21.2188L45.3906 23.1016C44.7812 22.8516 44.276 22.6771 43.875 22.5781C43.4792 22.4792 43.0885 22.4297 42.7031 22.4297C42.2448 22.4297 41.8932 22.5365 41.6484 22.75C41.4036 22.9635 41.2812 23.2422 41.2812 23.5859C41.2812 23.7995 41.3307 23.987 41.4297 24.1484C41.5286 24.3047 41.6849 24.4583 41.8984 24.6094C42.1172 24.7552 42.6302 25.0208 43.4375 25.4062C44.5052 25.9167 45.237 26.4297 45.6328 26.9453C46.0286 27.4557 46.2266 28.0833 46.2266 28.8281ZM55.0391 28.8281C55.0391 29.8594 54.6667 30.6719 53.9219 31.2656C53.1823 31.8594 52.151 32.1562 50.8281 32.1562C49.6094 32.1562 48.5312 31.9271 47.5938 31.4688V29.2188C48.3646 29.5625 49.0156 29.8047 49.5469 29.9453C50.0833 30.0859 50.5729 30.1562 51.0156 30.1562C51.5469 30.1562 51.9531 30.0547 52.2344 29.8516C52.5208 29.6484 52.6641 29.3464 52.6641 28.9453C52.6641 28.7214 52.6016 28.5234 52.4766 28.3516C52.3516 28.1745 52.1667 28.0052 51.9219 27.8438C51.6823 27.6823 51.1901 27.4245 50.4453 27.0703C49.7474 26.7422 49.224 26.4271 48.875 26.125C48.526 25.8229 48.2474 25.4714 48.0391 25.0703C47.8307 24.6693 47.7266 24.2005 47.7266 23.6641C47.7266 22.6536 48.0677 21.8594 48.75 21.2812C49.4375 20.7031 50.3854 20.4141 51.5938 20.4141C52.1875 20.4141 52.7526 20.4844 53.2891 20.625C53.8307 20.7656 54.3958 20.9635 54.9844 21.2188L54.2031 23.1016C53.5938 22.8516 53.0885 22.6771 52.6875 22.5781C52.2917 22.4792 51.901 22.4297 51.5156 22.4297C51.0573 22.4297 50.7057 22.5365 50.4609 22.75C50.2161 22.9635 50.0938 23.2422 50.0938 23.5859C50.0938 23.7995 50.1432 23.987 50.2422 24.1484C50.3411 24.3047 50.4974 24.4583 50.7109 24.6094C50.9297 24.7552 51.4427 25.0208 52.25 25.4062C53.3177 25.9167 54.0495 26.4297 54.4453 26.9453C54.8411 27.4557 55.0391 28.0833 55.0391 28.8281ZM57.1094 32V20.5781H59.5312V32H57.1094ZM69.1484 28.8281C69.1484 29.8594 68.776 30.6719 68.0312 31.2656C67.2917 31.8594 66.2604 32.1562 64.9375 32.1562C63.7188 32.1562 62.6406 31.9271 61.7031 31.4688V29.2188C62.474 29.5625 63.125 29.8047 63.6562 29.9453C64.1927 30.0859 64.6823 30.1562 65.125 30.1562C65.6562 30.1562 66.0625 30.0547 66.3438 29.8516C66.6302 29.6484 66.7734 29.3464 66.7734 28.9453C66.7734 28.7214 66.7109 28.5234 66.5859 28.3516C66.4609 28.1745 66.276 28.0052 66.0312 27.8438C65.7917 27.6823 65.2995 27.4245 64.5547 27.0703C63.8568 26.7422 63.3333 26.4271 62.9844 26.125C62.6354 25.8229 62.3568 25.4714 62.1484 25.0703C61.9401 24.6693 61.8359 24.2005 61.8359 23.6641C61.8359 22.6536 62.1771 21.8594 62.8594 21.2812C63.5469 20.7031 64.4948 20.4141 65.7031 20.4141C66.2969 20.4141 66.862 20.4844 67.3984 20.625C67.9401 20.7656 68.5052 20.9635 69.0938 21.2188L68.3125 23.1016C67.7031 22.8516 67.1979 22.6771 66.7969 22.5781C66.401 22.4792 66.0104 22.4297 65.625 22.4297C65.1667 22.4297 64.8151 22.5365 64.5703 22.75C64.3255 22.9635 64.2031 23.2422 64.2031 23.5859C64.2031 23.7995 64.2526 23.987 64.3516 24.1484C64.4505 24.3047 64.6068 24.4583 64.8203 24.6094C65.0391 24.7552 65.5521 25.0208 66.3594 25.4062C67.4271 25.9167 68.1589 26.4297 68.5547 26.9453C68.9505 27.4557 69.1484 28.0833 69.1484 28.8281ZM75.625 32H73.2031V22.5938H70.1016V20.5781H78.7266V22.5938H75.625V32ZM80.4844 32V20.5781H82.9062V32H80.4844ZM88.2031 25.6484H88.9844C89.75 25.6484 90.3151 25.5208 90.6797 25.2656C91.0443 25.0104 91.2266 24.6094 91.2266 24.0625C91.2266 23.5208 91.0391 23.1354 90.6641 22.9062C90.2943 22.6771 89.7188 22.5625 88.9375 22.5625H88.2031V25.6484ZM88.2031 27.6172V32H85.7812V20.5781H89.1094C90.6615 20.5781 91.8099 20.862 92.5547 21.4297C93.2995 21.9922 93.6719 22.849 93.6719 24C93.6719 24.6719 93.487 25.2708 93.1172 25.7969C92.7474 26.3177 92.224 26.7266 91.5469 27.0234C93.2656 29.5911 94.3854 31.25 94.9062 32H92.2188L89.4922 27.6172H88.2031ZM107.492 32L106.664 29.2812H102.5L101.672 32H99.0625L103.094 20.5312H106.055L110.102 32H107.492ZM106.086 27.25C105.32 24.7865 104.888 23.3932 104.789 23.0703C104.695 22.7474 104.628 22.4922 104.586 22.3047C104.414 22.9714 103.922 24.6198 103.109 27.25H106.086ZM115.883 25.5859H120.414V31.5078C119.68 31.7474 118.987 31.9141 118.336 32.0078C117.69 32.1068 117.029 32.1562 116.352 32.1562C114.628 32.1562 113.31 31.651 112.398 30.6406C111.492 29.625 111.039 28.1693 111.039 26.2734C111.039 24.4297 111.565 22.9922 112.617 21.9609C113.674 20.9297 115.138 20.4141 117.008 20.4141C118.18 20.4141 119.31 20.6484 120.398 21.1172L119.594 23.0547C118.76 22.638 117.893 22.4297 116.992 22.4297C115.945 22.4297 115.107 22.7812 114.477 23.4844C113.846 24.1875 113.531 25.1328 113.531 26.3203C113.531 27.5599 113.784 28.5078 114.289 29.1641C114.799 29.8151 115.539 30.1406 116.508 30.1406C117.013 30.1406 117.526 30.0885 118.047 29.9844V27.6016H115.883V25.5859ZM133.508 26.2734C133.508 28.1641 133.039 29.6172 132.102 30.6328C131.164 31.6484 129.82 32.1562 128.07 32.1562C126.32 32.1562 124.977 31.6484 124.039 30.6328C123.102 29.6172 122.633 28.1589 122.633 26.2578C122.633 24.3568 123.102 22.9062 124.039 21.9062C124.982 20.901 126.331 20.3984 128.086 20.3984C129.841 20.3984 131.182 20.9036 132.109 21.9141C133.042 22.9245 133.508 24.3776 133.508 26.2734ZM125.172 26.2734C125.172 27.5495 125.414 28.5104 125.898 29.1562C126.383 29.8021 127.107 30.125 128.07 30.125C130.003 30.125 130.969 28.8411 130.969 26.2734C130.969 23.7005 130.008 22.4141 128.086 22.4141C127.122 22.4141 126.396 22.7396 125.906 23.3906C125.417 24.0365 125.172 24.9974 125.172 26.2734ZM138.297 25.6484H139.078C139.844 25.6484 140.409 25.5208 140.773 25.2656C141.138 25.0104 141.32 24.6094 141.32 24.0625C141.32 23.5208 141.133 23.1354 140.758 22.9062C140.388 22.6771 139.812 22.5625 139.031 22.5625H138.297V25.6484ZM138.297 27.6172V32H135.875V20.5781H139.203C140.755 20.5781 141.904 20.862 142.648 21.4297C143.393 21.9922 143.766 22.849 143.766 24C143.766 24.6719 143.581 25.2708 143.211 25.7969C142.841 26.3177 142.318 26.7266 141.641 27.0234C143.359 29.5911 144.479 31.25 145 32H142.312L139.586 27.6172H138.297ZM153.43 32L152.602 29.2812H148.438L147.609 32H145L149.031 20.5312H151.992L156.039 32H153.43ZM152.023 27.25C151.258 24.7865 150.826 23.3932 150.727 23.0703C150.633 22.7474 150.565 22.4922 150.523 22.3047C150.352 22.9714 149.859 24.6198 149.047 27.25H152.023Z" fill="white"/>
</svg>
