<svg width="115" height="52" viewBox="0 0 115 52" fill="none" xmlns="http://www.w3.org/2000/svg">
<rect x="0.5" y="0.5" width="114" height="51" rx="2.5" fill="#131318"/>
<path d="M30.8438 32H28.4219V22.5938H25.3203V20.5781H33.9453V22.5938H30.8438V32ZM38.125 25.6484H38.9062C39.6719 25.6484 40.237 25.5208 40.6016 25.2656C40.9661 25.0104 41.1484 24.6094 41.1484 24.0625C41.1484 23.5208 40.9609 23.1354 40.5859 22.9062C40.2161 22.6771 39.6406 22.5625 38.8594 22.5625H38.125V25.6484ZM38.125 27.6172V32H35.7031V20.5781H39.0312C40.5833 20.5781 41.7318 20.862 42.4766 21.4297C43.2214 21.9922 43.5938 22.849 43.5938 24C43.5938 24.6719 43.4089 25.2708 43.0391 25.7969C42.6693 26.3177 42.1458 26.7266 41.4688 27.0234C43.1875 29.5911 44.3073 31.25 44.8281 32H42.1406L39.4141 27.6172H38.125ZM53.2578 32L52.4297 29.2812H48.2656L47.4375 32H44.8281L48.8594 20.5312H51.8203L55.8672 32H53.2578ZM51.8516 27.25C51.0859 24.7865 50.6536 23.3932 50.5547 23.0703C50.4609 22.7474 50.3932 22.4922 50.3516 22.3047C50.1797 22.9714 49.6875 24.6198 48.875 27.25H51.8516ZM57.3125 32V20.5781H59.7344V32H57.3125ZM62.6094 32V20.5781H65.0312V30H69.6641V32H62.6094ZM78.2344 32H71.6562V20.5781H78.2344V22.5625H74.0781V25.0703H77.9453V27.0547H74.0781V30H78.2344V32ZM83.0469 25.6484H83.8281C84.5938 25.6484 85.1589 25.5208 85.5234 25.2656C85.888 25.0104 86.0703 24.6094 86.0703 24.0625C86.0703 23.5208 85.8828 23.1354 85.5078 22.9062C85.138 22.6771 84.5625 22.5625 83.7812 22.5625H83.0469V25.6484ZM83.0469 27.6172V32H80.625V20.5781H83.9531C85.5052 20.5781 86.6536 20.862 87.3984 21.4297C88.1432 21.9922 88.5156 22.849 88.5156 24C88.5156 24.6719 88.3307 25.2708 87.9609 25.7969C87.5911 26.3177 87.0677 26.7266 86.3906 27.0234C88.1094 29.5911 89.2292 31.25 89.75 32H87.0625L84.3359 27.6172H83.0469Z" fill="white"/>
<rect x="0.5" y="0.5" width="114" height="51" rx="2.5" stroke="white"/>
</svg>
