<svg width="117" height="30" viewBox="0 0 117 30" fill="none" xmlns="http://www.w3.org/2000/svg">
<path d="M15 27.5C21.9036 27.5 27.5 21.9036 27.5 15C27.5 8.09644 21.9036 2.5 15 2.5C8.09644 2.5 2.5 8.09644 2.5 15C2.5 21.9036 8.09644 27.5 15 27.5Z" stroke="white" stroke-width="2" stroke-linecap="round" stroke-linejoin="round"/>
<path d="M15 7.5V15L20 17.5" stroke="white" stroke-width="2" stroke-linecap="round" stroke-linejoin="round"/>
<path d="M47.892 11.448C48.084 11.4 48.292 11.364 48.516 11.34C48.748 11.308 49.004 11.292 49.284 11.292C50.212 11.292 51.04 11.428 51.768 11.7C52.504 11.972 53.124 12.344 53.628 12.816C54.14 13.288 54.528 13.84 54.792 14.472C55.064 15.096 55.2 15.768 55.2 16.488C55.2 17.312 55.036 18.068 54.708 18.756C54.38 19.444 53.932 20.068 53.364 20.628C52.804 21.18 52.148 21.668 51.396 22.092C50.644 22.508 49.84 22.86 48.984 23.148C48.136 23.428 47.26 23.64 46.356 23.784C45.452 23.928 44.568 24 43.704 24V21.288C44.272 21.272 44.852 21.208 45.444 21.096C46.044 20.984 46.624 20.832 47.184 20.64C47.744 20.448 48.272 20.216 48.768 19.944C49.264 19.672 49.696 19.372 50.064 19.044C50.44 18.708 50.736 18.348 50.952 17.964C51.168 17.572 51.276 17.16 51.276 16.728C51.276 16.4 51.22 16.08 51.108 15.768C50.996 15.456 50.836 15.18 50.628 14.94C50.428 14.7 50.188 14.508 49.908 14.364C49.628 14.212 49.316 14.136 48.972 14.136C48.668 14.136 48.384 14.16 48.12 14.208C47.856 14.256 47.616 14.32 47.4 14.4C47.184 14.472 46.992 14.552 46.824 14.64C46.664 14.728 46.524 14.812 46.404 14.892H43.704V6H54.096V8.4H47.892V11.448ZM63.9694 13.44L64.8574 9.084L62.1334 12.336L61.1254 13.224L59.2654 11.004L65.0254 5.7L67.9414 6.096V21.6H70.8574V24H61.0534V21.6H63.9694V13.44ZM78.6908 24H74.7788V10.884L78.6908 10.488V12.756L79.7708 10.944C80.0268 10.856 80.2868 10.776 80.5508 10.704C80.8228 10.632 81.0988 10.596 81.3788 10.596C81.7228 10.596 82.0668 10.624 82.4108 10.68C82.7628 10.736 83.0908 10.812 83.3948 10.908C83.7068 11.004 83.9908 11.124 84.2468 11.268C84.5108 11.404 84.7268 11.556 84.8948 11.724C85.0788 11.596 85.2908 11.464 85.5308 11.328C85.7788 11.192 86.0508 11.072 86.3468 10.968C86.6508 10.856 86.9748 10.768 87.3188 10.704C87.6628 10.632 88.0268 10.596 88.4108 10.596C89.1388 10.596 89.7908 10.704 90.3668 10.92C90.9508 11.136 91.4428 11.444 91.8428 11.844C92.2508 12.236 92.5628 12.716 92.7788 13.284C92.9948 13.844 93.1028 14.472 93.1028 15.168V24H89.1908V14.916C89.1908 14.588 89.1508 14.316 89.0708 14.1C88.9908 13.876 88.8828 13.7 88.7468 13.572C88.6188 13.436 88.4708 13.34 88.3028 13.284C88.1428 13.228 87.9748 13.2 87.7988 13.2C87.6868 13.2 87.5548 13.228 87.4028 13.284C87.2508 13.332 87.0868 13.404 86.9108 13.5C86.7348 13.588 86.5548 13.696 86.3708 13.824C86.1868 13.944 86.0148 14.08 85.8548 14.232C85.8708 14.424 85.8788 14.592 85.8788 14.736C85.8868 14.872 85.8907 15.052 85.8907 15.276V24H81.9788V14.916C81.9788 14.588 81.9468 14.316 81.8828 14.1C81.8268 13.876 81.7468 13.7 81.6428 13.572C81.5388 13.436 81.4108 13.34 81.2588 13.284C81.1148 13.228 80.9548 13.2 80.7788 13.2C80.6428 13.2 80.4868 13.224 80.3108 13.272C80.1428 13.32 79.9668 13.388 79.7828 13.476C79.5988 13.556 79.4108 13.66 79.2188 13.788C79.0348 13.916 78.8588 14.056 78.6908 14.208V24ZM100.132 24H96.3401V11.412L100.132 11.028V24ZM96.2681 6H100.204V8.772H96.2681V6ZM107.495 10.488V12.756L108.575 10.944C108.831 10.856 109.091 10.776 109.355 10.704C109.627 10.632 109.903 10.596 110.183 10.596C110.527 10.596 110.859 10.608 111.179 10.632C111.507 10.648 111.819 10.696 112.115 10.776C112.411 10.848 112.691 10.96 112.955 11.112C113.219 11.256 113.467 11.456 113.699 11.712C113.947 11.984 114.139 12.28 114.275 12.6C114.411 12.92 114.507 13.24 114.563 13.56C114.627 13.872 114.663 14.18 114.671 14.484C114.687 14.78 114.695 15.044 114.695 15.276V24H110.783V14.916C110.783 14.588 110.751 14.316 110.687 14.1C110.631 13.876 110.551 13.7 110.447 13.572C110.343 13.436 110.215 13.34 110.063 13.284C109.919 13.228 109.759 13.2 109.583 13.2C109.447 13.2 109.291 13.224 109.115 13.272C108.947 13.32 108.771 13.388 108.587 13.476C108.403 13.556 108.215 13.66 108.023 13.788C107.839 13.916 107.663 14.056 107.495 14.208V24H103.583V10.884L107.495 10.488Z" fill="white"/>
</svg>
